<?xml version="1.0" standalone="no"?>
<!DOCTYPE svg PUBLIC "-//W3C//DTD SVG 20010904//EN"
 "http://www.w3.org/TR/2001/REC-SVG-20010904/DTD/svg10.dtd">
<svg version="1.0" xmlns="http://www.w3.org/2000/svg"
 width="113.000000pt" height="113.000000pt" viewBox="0 0 113.000000 113.000000"
 preserveAspectRatio="xMidYMid meet">
<metadata>
Created by potrace 1.11, written by Peter Selinger 2001-2013
</metadata>
<g transform="translate(0.000000,113.000000) scale(0.100000,-0.100000)"
fill="#000000" stroke="none">
<path d="M410 887 c0 -10 9 -25 21 -35 11 -9 29 -36 39 -59 13 -31 25 -43 39
-43 12 0 21 -6 21 -14 0 -18 -31 -11 -57 12 -18 17 -47 32 -108 57 -16 7 -61
27 -99 46 -46 22 -88 34 -127 37 -80 6 -109 -2 -109 -32 0 -41 12 -86 23 -86
13 0 65 -58 72 -81 3 -9 25 -27 48 -39 36 -19 42 -27 42 -54 0 -26 6 -34 40
-51 22 -11 43 -25 47 -32 5 -6 17 -9 28 -6 11 3 26 0 34 -6 7 -6 21 -9 30 -5
9 3 16 1 16 -5 0 -6 19 -9 48 -7 l48 2 12 -65 c7 -36 17 -70 22 -75 4 -6 12
-26 17 -45 12 -45 26 -49 40 -10 7 18 16 28 23 24 7 -4 9 2 4 19 -4 16 -2 26
5 26 6 0 10 12 9 28 -1 15 -1 49 0 75 l2 48 29 -22 c25 -18 34 -20 59 -11 17
6 33 8 36 5 3 -4 6 -1 6 5 0 6 21 14 48 18 26 3 67 16 92 27 41 20 45 25 45
60 0 28 4 37 17 37 9 0 20 5 23 10 4 6 10 8 15 5 4 -3 11 2 14 11 4 10 12 14
22 10 13 -5 15 -2 11 14 -3 12 1 25 12 33 10 6 20 20 24 31 4 11 13 16 22 12
12 -4 15 6 15 58 l0 64 -39 7 c-47 8 -95 -4 -192 -49 -116 -53 -115 -53 -130
-9 -7 21 -12 46 -11 55 0 11 -12 4 -39 -23 -21 -21 -45 -39 -51 -39 -7 0 -24
-9 -38 -20 -14 -11 -33 -20 -42 -20 -29 0 -111 49 -145 87 -23 26 -33 32 -33
20z m-297 -34 c-7 -2 -19 -2 -25 0 -7 3 -2 5 12 5 14 0 19 -2 13 -5z m997 -3
c12 -8 10 -10 -10 -9 -14 1 -36 5 -50 9 -23 7 -22 8 10 9 19 0 42 -4 50 -9z
m-910 -22 c0 -4 -13 -8 -30 -8 -16 0 -30 4 -30 9 0 5 14 9 30 9 17 -1 30 -5
30 -10z m37 -4 c-3 -3 -12 -4 -19 -1 -8 3 -5 6 6 6 11 1 17 -2 13 -5z m875 -9
c-2 -5 -9 -8 -15 -6 -7 3 -50 5 -97 5 -52 0 -75 3 -60 7 37 11 176 6 172 -6z
m-399 -27 c16 -26 16 -27 -19 -49 l-37 -22 -18 24 c-10 13 -19 27 -19 31 0 6
74 50 76 45 0 -1 8 -14 17 -29z m-465 16 c28 -4 52 -10 52 -15 0 -10 -202 -16
-215 -6 -29 23 55 33 163 21z m842 -19 c0 -6 -42 -10 -103 -11 -106 -1 -140 5
-97 17 37 11 200 6 200 -6z m-740 -11 c0 -2 -7 -4 -15 -4 -8 0 -15 4 -15 10 0
5 7 7 15 4 8 -4 15 -8 15 -10z m200 -4 c0 -5 -4 -10 -10 -10 -5 0 -10 5 -10
10 0 6 5 10 10 10 6 0 10 -4 10 -10z m294 -14 c-5 -14 -9 -15 -15 -5 -5 8 -3
17 4 21 15 9 19 4 11 -16z m-534 3 c0 -5 -15 -9 -33 -9 -19 0 -59 -5 -91 -11
-44 -9 -60 -9 -69 0 -9 9 -8 14 3 21 19 12 190 11 190 -1z m113 -19 c14 -11
32 -20 40 -20 9 0 19 -5 23 -11 4 -7 0 -9 -12 -6 -11 4 -30 8 -44 11 -85 16
-84 16 -64 31 25 19 27 19 57 -5z m174 14 c-3 -3 -12 -4 -19 -1 -8 3 -5 6 6 6
11 1 17 -2 13 -5z m467 -3 c3 -5 -1 -14 -8 -21 -11 -8 -29 -9 -72 -1 -32 6
-75 11 -96 11 -24 0 -37 4 -33 10 8 12 202 13 209 1z m-759 -21 c-90 -26 -156
-37 -161 -28 -9 14 -4 16 50 22 26 2 51 7 54 10 3 3 24 6 46 5 40 -1 40 -1 11
-9z m476 -6 c11 -14 10 -15 -11 -12 -13 1 -25 9 -28 16 -5 17 23 15 39 -4z
m207 -14 c2 -4 12 -6 22 -3 12 3 20 0 20 -7 0 -13 -11 -12 -130 15 l-65 14 75
-5 c41 -3 76 -9 78 -14z m-383 0 c23 -10 21 -11 -17 -14 -17 -1 -28 3 -28 11
0 15 16 16 45 3z m-295 -8 c0 -8 -112 -32 -120 -25 -9 8 25 23 42 19 10 -2 21
0 24 5 6 11 54 12 54 1z m550 -3 c0 -11 -21 -11 -39 0 -9 6 -5 9 13 9 14 0 26
-4 26 -9z m-380 -13 c45 -15 44 -15 -72 -15 -64 -1 -125 -4 -135 -8 -10 -3
-15 -2 -11 2 7 7 119 31 158 34 8 0 35 -6 60 -13z m453 7 c4 -3 19 -8 33 -9
26 -3 41 -11 33 -18 -8 -7 -129 17 -129 25 0 10 54 12 63 2z m-137 -16 c4 -4
-16 -7 -45 -7 -29 0 -50 4 -47 9 7 10 82 8 92 -2z m-236 -7 c0 -5 -4 -10 -10
-10 -5 0 -10 5 -10 10 0 6 5 10 10 10 6 0 10 -4 10 -10z m305 0 c18 -8 18 -9
-5 -9 -14 0 -32 4 -40 9 -12 8 -12 10 5 9 11 0 29 -4 40 -9z m-405 -20 c0 -11
-21 -11 -65 0 -27 7 -25 8 18 9 26 0 47 -3 47 -9z m330 0 c0 -5 -7 -10 -16
-10 -8 0 -12 5 -9 10 3 6 10 10 16 10 5 0 9 -4 9 -10z m163 3 c-7 -2 -21 -2
-30 0 -10 3 -4 5 12 5 17 0 24 -2 18 -5z m-615 -10 c-10 -2 -26 -2 -35 0 -10
3 -2 5 17 5 19 0 27 -2 18 -5z m407 -4 c4 -5 -16 -9 -47 -8 -43 1 -47 3 -23 8
47 10 64 10 70 0z m-145 -15 c0 -9 -7 -14 -17 -12 -25 5 -28 28 -4 28 12 0 21
-6 21 -16z m310 5 c11 -7 4 -8 -25 -3 -50 8 -58 14 -19 14 16 0 36 -5 44 -11z
m-653 -15 c-3 -3 -12 -4 -19 -1 -8 3 -5 6 6 6 11 1 17 -2 13 -5z m83 -2 c0 -5
-19 -15 -42 -23 -52 -16 -57 -17 -60 -4 -2 5 15 15 37 21 49 15 65 16 65 6z
m157 2 c-3 -3 -12 -4 -19 -1 -8 3 -5 6 6 6 11 1 17 -2 13 -5z m226 -11 c-7 -2
-21 -2 -30 0 -10 3 -4 5 12 5 17 0 24 -2 18 -5z m173 -4 c24 -6 44 -15 44 -20
0 -13 -19 -11 -80 11 -61 21 -37 27 36 9z m-557 -13 c-15 -13 -69 -35 -69 -27
0 5 12 14 28 19 28 11 48 15 41 8z m76 -16 c-10 -11 -22 -17 -28 -13 -6 4 -3
12 8 20 28 20 41 16 20 -7z m45 16 c0 -2 -8 -10 -17 -17 -16 -13 -17 -12 -4 4
13 16 21 21 21 13z m261 -33 l34 -38 -40 35 c-22 19 -42 36 -44 38 -2 1 0 2 5
2 6 0 26 -17 45 -37z m-380 7 c-22 -19 -41 -26 -41 -15 0 5 51 34 60 34 3 0
-6 -9 -19 -19z m319 9 c0 -5 4 -8 9 -5 9 6 54 -42 59 -62 1 -7 -2 -12 -8 -12
-5 0 -10 6 -10 13 0 8 -11 19 -24 25 -27 12 -54 52 -36 52 5 0 10 -5 10 -11z
m-150 -8 c0 -16 -41 -61 -56 -61 -21 0 -17 10 14 41 28 29 42 36 42 20z m311
-29 c-14 -5 -51 17 -51 29 0 6 14 2 30 -8 17 -10 26 -19 21 -21z m14 28 c3 -6
-1 -7 -9 -4 -18 7 -21 14 -7 14 6 0 13 -4 16 -10z m-380 -10 c-3 -5 -16 -15
-28 -21 -21 -10 -21 -9 2 10 25 23 36 27 26 11z m165 -10 c0 -21 -23 -26 -67
-14 -36 10 -16 34 28 34 32 0 39 -3 39 -20z m-32 -50 c11 -19 10 -20 -23 -20
-28 0 -35 4 -35 20 0 14 7 20 23 20 12 0 28 -9 35 -20z m24 -79 c4 -1 5 -8 2
-16 -6 -15 -55 -21 -67 -9 -10 11 16 30 37 28 12 -1 24 -3 28 -3z m-20 -83
c-9 -9 -15 -9 -24 0 -9 9 -7 12 12 12 19 0 21 -3 12 -12z"/>
</g>
</svg>
